<svg xmlns="http://www.w3.org/2000/svg" width="480" height="320" viewBox="0 0 480 320"><rect width="480" height="320" fill="#F2F3F5"/><rect x="40" y="70" width="120" height="190" rx="10" fill="#FFFFFF" stroke="#E5E7EB"/><rect x="40" y="70" width="120" height="80" rx="10" fill="#D1D5DB"/><rect x="52" y="165" width="90" height="12" rx="4" fill="#1F2937"/><rect x="52" y="190" width="96" height="8" rx="4" fill="#9CA3AF"/><rect x="52" y="206" width="57.599999999999994" height="8" rx="4" fill="#9CA3AF"/><rect x="52" y="232" width="50" height="8" rx="4" fill="#00965E"/><rect x="180" y="70" width="120" height="190" rx="10" fill="#FFFFFF" stroke="#E5E7EB"/><rect x="180" y="70" width="120" height="80" rx="10" fill="#D1D5DB"/><rect x="192" y="165" width="90" height="12" rx="4" fill="#1F2937"/><rect x="192" y="190" width="96" height="8" rx="4" fill="#9CA3AF"/><rect x="192" y="206" width="57.599999999999994" height="8" rx="4" fill="#9CA3AF"/><rect x="192" y="232" width="50" height="8" rx="4" fill="#00965E"/><rect x="320" y="70" width="120" height="190" rx="10" fill="#FFFFFF" stroke="#E5E7EB"/><rect x="320" y="70" width="120" height="80" rx="10" fill="#D1D5DB"/><rect x="332" y="165" width="90" height="12" rx="4" fill="#1F2937"/><rect x="332" y="190" width="96" height="8" rx="4" fill="#9CA3AF"/><rect x="332" y="206" width="57.599999999999994" height="8" rx="4" fill="#9CA3AF"/><rect x="332" y="232" width="50" height="8" rx="4" fill="#00965E"/><rect x="0" y="284" width="480" height="36" fill="#FFFFFF"/><text x="16" y="308" font-family="Open Sans, Arial, sans-serif" font-size="16" font-weight="700" fill="#1F2937">Cards</text><circle cx="456" cy="302" r="6" fill="#00965E"/></svg>